<?xml version="1.0" encoding="utf-8"?>
<!-- Generator: Adobe Illustrator 19.2.1, SVG Export Plug-In . SVG Version: 6.00 Build 0)  -->
<svg version="1.1" id="Capa_1" xmlns="http://www.w3.org/2000/svg" xmlns:xlink="http://www.w3.org/1999/xlink" x="0px" y="0px"
	 viewBox="0 0 278 316" style="enable-background:new 0 0 278 316;" xml:space="preserve">
<style type="text/css">
	.st0{fill:#614235;}
	.st1{fill:#7F6259;}
</style>
<g>
	
		<image style="overflow:visible;opacity:0.75;enable-background:new    ;" width="81" height="173" xlink:href="BF95C02C.png"  transform="matrix(1 0 0 1 14 19)">
	</image>
	<g>
		<path class="st0" d="M23,29h48.3v0.8c0,0.9,0.3,90.1,0,102.5c-0.3,13-44.8,34.4-46.7,35.4l-1.6,0.7C23,168.4,23,29,23,29z"/>
		<path class="st1" d="M70.3,30c0,0,0.2,89.9-0.1,102.4C69.8,145,24,166.8,24,166.8V30h46 M72.3,28h-2h-46H22v1.7v137.1v3.2l3-1.4
			c0.1-0.1,11.7-5.6,23.1-12.7c16-9.9,23.9-17.6,24.1-23.6c0.3-12.4,0-101.6,0-102.5L72.3,28L72.3,28z"/>
	</g>
</g>
<g>
	
		<image style="overflow:visible;opacity:0.75;enable-background:new    ;" width="81" height="189" xlink:href="BF95C02D.png"  transform="matrix(1 0 0 1 172 127)">
	</image>
	<g>
		<path class="st0" d="M182,293v-1c0,0-0.2-97-0.2-115c0.9-18,44.8-38.4,46.7-39.2l1.5-0.7V293H182z"/>
		<path class="st1" d="M229,139v153h-46.3c0,0,0.2-97,0.2-115c0.9-17.6,46.2-38.3,46.2-38.3 M231,135.6l-3,1.3
			c-0.1,0.1-11.6,5.3-23,12.7c-15.7,10.2-23.7,19.4-24.1,27.3h0.1l0,0c0,17.7,0,114,0,115v2h1.7h46h2.3v-2V138.7V135.6L231,135.6z"
			/>
	</g>
</g>
<g>
	
		<image style="overflow:visible;opacity:0.75;enable-background:new    ;" width="81" height="158" xlink:href="BF95C02B.png"  transform="matrix(1 0 0 1 172 18)">
	</image>
	<g>
		<path class="st0" d="M182,27h47.7v1c0,0.8,0.3,82.7,0,92c-0.3,9.7-41.7,29.3-46.4,31.5l-1.3,0.7L182,27L182,27z"/>
		<path class="st1" d="M228.7,28c0,0,0.4,82.6,0.2,92c-0.3,9.4-45.8,30.7-45.8,30.7V28h46 M230.7,26h-2h-46H181v2v122.6v3.1l2.7-1.3
			c0.1-0.1,11.5-5.4,22.9-11.9c21.4-12.1,24-17.5,24.1-20.5c0.3-9.3,0-88.7,0-92V26L230.7,26z"/>
	</g>
</g>
<g>
	
		<image style="overflow:visible;opacity:0.75;enable-background:new    ;" width="159" height="81" xlink:href="BF95C034.png"  transform="matrix(1 0 0 1 41 130)">
	</image>
	<g>
		<path class="st0" d="M54.9,187c-2.5,0-3.9-1.1-4-3.4c-0.1-10.2,29.9-44.2,34.6-44.3c1.3,0,9.8,0,25.4,0c26.7,0,65,0.1,65,0.1h1.1
			V187H54.9z"/>
		<path class="st1" d="M111,140.4c26.7,0,65,0,65,0V186c0,0-107,0-121.1,0s26.3-45.7,30.7-45.8C87.1,140.2,97.6,140.4,111,140.4
			 M110.9,138.4c-15.5,0-24.1,0-25.4,0c-0.8,0-2.2,0.1-8.2,6c-3.5,3.5-7.6,8-11.5,12.8c-5.9,7.2-15.9,20-15.8,26.4
			c0,2.8,1.9,4.4,5,4.4h120.9h2.1v-1.6v-46v-2h-2.1C175.6,138.4,137.4,138.4,110.9,138.4L110.9,138.4z"/>
	</g>
</g>
</svg>
