<?xml version="1.0" encoding="UTF-8" standalone="no"?>
<svg id="Fondo" xmlns="http://www.w3.org/2000/svg" viewBox="0 0 657.69 436.01">
 <defs>
  <style>.cls-1,.cls-3{fill:#fa7541;}.cls-1,.cls-4{stroke:#6b351f;stroke-width:6px;}.cls-1{stroke-linejoin:round;}.cls-2,.cls-7,.cls-8{fill:#614235;}.cls-4,.cls-5{fill:#e0987b;}.cls-4,.cls-7{stroke-miterlimit:10;}.cls-6{fill:#6b351f;}.cls-7{stroke:#000;}.cls-7,.cls-8{stroke-width:3px;}.cls-8{stroke:#614235;stroke-linecap:round;stroke-linejoin:bevel;}</style>
 </defs>
 <title>Logo</title>
 <path transform="translate(-342.18 -141)" class="cls-1" d="m827 503c1 0 52.88-71.84 72-72s-81-72-81-72 97-71 72-72-72-72-72-72l-10.67-71c8.54 15.56-54.39 53.5-123.79 54s-130.06-37.92-119.88-54l-44.66 71s-35.67 73.33-72 72 81 72 81 72-100.67 70.67-72 72 72 72 72 72"/>
 <path transform="translate(-342.18 -141)" class="cls-2" d="m563.28 357.31a0.21 0.21 0 0 1 -0.16 -0.08 0.43 0.43 0 0 1 -0.12 -0.42v-137.11c0-0.28 0-0.7 0.28-0.7h46a0.6 0.6 0 0 1 0.5 0.6c0 0.9 0.32 90.26 0 102.66-0.32 12.69-44.39 34.08-46.27 35a0.54 0.54 0 0 1 -0.23 0.05z"/>
 <path transform="translate(-342.18 -141)" class="cls-3" d="m609.27 220s0.18 89.91-0.14 102.44-46.13 34.37-46.13 34.37v-136.81h46m0.27-1h-46c-0.55 0-1.28 0.15-1.28 0.7v137.11a1.16 1.16 0 0 0 0.61 0.85 1.25 1.25 0 0 0 0.6 0.15 1.16 1.16 0 0 0 0.47 -0.1c0.11-0.06 11.61-5.6 23-12.61 15.51-9.56 23.46-17.23 23.6-22.78 0.32-12.41 0-101.57 0-102.47a0.88 0.88 0 0 0 -1 -0.85z"/>
 <path transform="translate(-342.18 -141)" class="cls-2" d="m721.68 483a0.78 0.78 0 0 1 -0.5 -0.75s0-97.15 0-115.09c0.86-17.69 44.42-38 46.28-38.84a0.55 0.55 0 0 1 0.21 -0.08 0.25 0.25 0 0 1 0.19 0.06 0.41 0.41 0 0 1 0.15 0.41v153.29c0 0.28-0.06 1-0.33 1h-46z"/>
 <path transform="translate(-342.18 -141)" class="cls-3" d="m768 329v153h-46.32s0.16-97 0.17-115c0.85-17.53 46.15-38.29 46.15-38.29m-0.33-1a1 1 0 0 0 -0.42 0.09c-1.87 0.86-45.7 21.22-46.57 39.18v115a1 1 0 0 0 1 1h46a1.34 1.34 0 0 0 1.33 -1v-153.27a1.19 1.19 0 0 0 -0.63 -0.84 1.64 1.64 0 0 0 -0.71 -0.16z"/>
 <path transform="translate(-342.18 -141)" class="cls-2" d="m721.68 341.13a0.85 0.85 0 0 1 -0.36 -0.08 0.61 0.61 0 0 1 -0.32 -0.42v-122.63c0-0.28 0.4 0 0.68 0h46c0.28 0 0.5 0 0.5 0.25 0 0.83 0.28 82.6 0 91.87-0.29 9.57-44.4 30.16-46.28 31a0.49 0.49 0 0 1 -0.22 0.01z"/>
 <path transform="translate(-342.18 -141)" class="cls-3" d="m767.67 218s0.44 82.61 0.16 92-45.83 30.63-45.83 30.63v-122.63h46m-0.33-1h-46c-0.55 0-0.68 0.45-0.68 1v122.63a0.88 0.88 0 0 0 0.3 0.84 0.75 0.75 0 0 0 0.46 0.16 0.83 0.83 0 0 0 0.38 -0.09c0.11-0.05 11.57-5.41 22.94-11.85 23.41-13.26 23.55-18.09 23.6-19.68 0.28-9.28 0-91.18 0-92a1 1 0 0 0 -1 -1z"/>
 <path transform="translate(-342.18 -141)" class="cls-2" d="m593.94 377c-2.2 0-3.43-1.16-3.46-3.17-0.12-10 30.24-43.79 34.1-43.89 1.29 0 9.82-0.06 25.36-0.06h64.74l0.32 0.49v46l-0.13 0.6h-120.93z"/>
 <path transform="translate(-342.18 -141)" class="cls-3" d="m650 330.37h65v45.63h-121.06c-14.05 0 26.33-45.68 30.69-45.79 1.45 0 12 0.15 25.38 0.15m-0.07-1h-25.37c-3.14 0.08-14.78 13.32-19 18.42-4.71 5.7-15.67 19.43-15.59 25.75 0 2.3 1.47 3.42 4 3.42h120.89l1.13-0.6v-46l-1.07-1h-65z"/>
 <path transform="translate(-342.18 -141)" class="cls-4" d="m825.38 501.29s61.79 0.42 97.63 0.21 71.99 71.5 71.99 71.5l-648 1s35.25-71.79 72-72l111.42-0.64"/>
 <path transform="translate(-342.18 -141)" class="cls-5" d="m345.66 572.83c1.47-3 36.5-72.66 73.34-72.83 22.23-0.1 182.93-0.21 312.63-0.21 63.86 0 173.64 0 191.39 0.21 36.87 0.38 71.85 69.39 73.33 72.33l-1.35 2.17-648 0.5z"/>
 <path transform="translate(-342.18 -141)" class="cls-6" d="m731.74 501.29c94 0 176.25 0.06 191.26 0.21 36.38 0.38 72 71.5 72 71.5l-648 0.5s35.67-71.83 72-72c21.34-0.1 178.94-0.21 312.74-0.21m0-3c-129.73 0-290.49 0.11-312.76 0.21-37.75 0.17-73.18 70.67-74.67 73.67l2.69 4.33 648-0.5 2.68-4.34c-1.49-3-36.88-72.77-74.65-73.16-17.75-0.18-127.47-0.21-191.29-0.21z"/>
 <path transform="translate(-342.18 -141)" class="cls-7" d="m884 506.7a21.39 21.39 0 0 1 3.32 1 9.89 9.89 0 0 1 6 9.52 10.31 10.31 0 0 1 -20.5 1.43 10.36 10.36 0 0 1 8.23 -11.76l0.87-0.18h2.08z"/>
 <path transform="translate(-342.18 -141)" class="cls-7" d="m881.93 568.7a21 21 0 0 1 -2.55 -0.68 10 10 0 0 1 -6.62 -8.44 10.33 10.33 0 0 1 20.4 -3.23 10.36 10.36 0 0 1 -7.48 12c-0.56 0.14-1.13 0.24-1.69 0.36h-2.06z"/>
 <path transform="translate(-342.18 -141)" class="cls-7" d="m883 529.94h23.31a7.75 7.75 0 0 1 1.66 15.3 7.36 7.36 0 0 1 -1.61 0.2q-23.4 0-46.8 0a7.75 7.75 0 0 1 0.38 -15.5h23.06z"/>
 <path transform="translate(-342.18 -141)" class="cls-7" d="m765.69 562.18l-15.69-15.69-15.88 15.93-9-9.06 15.74-15.71-15.86-15.87 9.08-9 15.71 15.77 15.84-15.92 9.06 9.07-15.69 15.65 15.78 15.76z"/>
 <path transform="translate(-342.18 -141)" class="cls-7" d="m613.2 550.82h-40.76c-5.3 0-7.81-2.48-7.81-7.72q0-5.64 0-11.27c0-4.94 2.41-7.49 7.41-7.54 8-0.08 16 0 24 0 19.08 0 38.16 0.09 57.24-0.06 5.23 0 9.21 2.24 8.7 8.7-0.27 3.35 0 6.74 0 10.11 0 5.29-2.47 7.81-7.72 7.81h-41.06z"/>
 <path transform="translate(-342.18 -141)" class="cls-7" d="m464.75 529.35h8.18 7.75a4.27 4.27 0 0 1 4.43 4.45c-0.11 2.64 0 5.29 0 7.94a3.81 3.81 0 0 1 -3.69 3.87c-3.79 0.11-7.58 0.08-11.38 0.11h-5.24c0 0.39-0.06 0.7-0.06 1q0 7 0 14.06a5.59 5.59 0 0 1 -0.78 3.57 3.86 3.86 0 0 1 -3.23 1.73c-2.65 0-5.3-0.07-7.94 0a4.32 4.32 0 0 1 -4.45 -4.55v-14.54-1.33h-3.75-12.24a4.12 4.12 0 0 1 -4.39 -4.35v-8a3.79 3.79 0 0 1 3.6 -3.86c3.31-0.13 6.63-0.09 9.94-0.11h6.81v-6.24-9.85a4 4 0 0 1 4.25 -4.26q4-0.06 8 0a3.82 3.82 0 0 1 3.91 3.57c0.16 3.4 0.12 6.82 0.15 10.23 0.15 2.13 0.13 4.26 0.13 6.56z"/>
 <line y1="113.75" x2="210.21" x1="170.82" y2="44.96" class="cls-8"/>
 <line y1="145" x2="464.54" x1="518.07" y2="82.5" class="cls-8"/>
 <line y1="290.9" x2="201.82" x1="155.26" y2="352.56" class="cls-8"/>
 <line y1="295" x2="472.61" x1="520.82" y2="352.56" class="cls-8"/>
</svg>
